# xmcd
#
# Track frame offsets:
#	150
#	13495
#	30345
#	50197
#	65485
#	79297
#	93510
#	115922
#	132222
#	147447
#	161190
#	173597
#
# Disc length: 2464 seconds
#
# Revision: 1
# Processed by: cddbd v1.5.2PL0 Copyright (c) Steve Scherf et al.
# Submitted via: audiograbber 1.83.01
#
DISCID=aa099e0c
DTITLE=REGINALDO ROSSI - NÃO CONSIGO TE ESQUECER
DYEAR=1900
DGENRE=BREGA
TTITLE0=REALMENTE UMA MULHER
TTITLE1=NÃO CONSIGO TE ESQUECER
TTITLE2=DOCE JUVENTUDE
TTITLE3=AI AMOR
TTITLE4=FESTA NO SERTÃO
TTITLE5=COM TODA RAZÃO
TTITLE6=RECIFE MINHA CIDADE
TTITLE7=NOSSO CASO DE AMOR
TTITLE8=MORRENDO DE PAIXÃO
TTITLE9=AMAZÔNIA
TTITLE10=UM SÓ CORAÇÃO
TTITLE11=GATINHA
EXTD=
EXTT0=
EXTT1=
EXTT2=
EXTT3=
EXTT4=
EXTT5=
EXTT6=
EXTT7=
EXTT8=
EXTT9=
EXTT10=
EXTT11=
PLAYORDER=
